<svg width="100" height="100" viewBox="0 0 100 100" fill="none" xmlns="http://www.w3.org/2000/svg">
<rect width="100" height="100" rx="14" fill="white"/>
<path fill-rule="evenodd" clip-rule="evenodd" d="M75.4558 24.5442C76.2353 25.3236 76.9716 26.1299 77.6646 26.9601C78.3043 27.7264 78.2224 28.8487 77.5165 29.5545L29.5545 77.5165C28.8487 78.2224 27.7264 78.3043 26.9601 77.6646C26.1299 76.9715 25.3236 76.2353 24.5442 75.4558C23.7647 74.6764 23.0285 73.8701 22.3354 73.0399C21.6957 72.2736 21.7776 71.1513 22.4835 70.4455L70.4455 22.4835C71.1513 21.7776 72.2736 21.6957 73.0399 22.3354C73.8701 23.0285 74.6764 23.7647 75.4558 24.5442ZM44.8956 84.8029C44.4405 85.2579 43.7936 85.4699 43.1617 85.3482C40.7267 84.8794 38.3307 84.1578 36.0159 83.1833C34.7667 82.6574 34.5126 81.0438 35.471 80.0854L80.0854 35.471C81.0438 34.5126 82.6574 34.7667 83.1833 36.0159C84.1578 38.3307 84.8795 40.7267 85.3482 43.1617C85.4699 43.7936 85.2579 44.4405 84.8029 44.8956L44.8956 84.8029ZM55.9934 82.1904C54.6905 83.4932 55.6867 85.5983 57.4893 85.2167C64.0733 83.8229 70.3424 80.5693 75.4558 75.4558C80.5693 70.3424 83.8229 64.0733 85.2167 57.4893C85.5983 55.6867 83.4932 54.6905 82.1904 55.9934L55.9934 82.1904ZM63.9841 16.8167C65.2333 17.3426 65.4874 18.9562 64.529 19.9146L19.9147 64.529C18.9562 65.4874 17.3427 65.2333 16.8167 63.9841C15.8422 61.6693 15.1206 59.2733 14.6518 56.8383C14.5301 56.2064 14.7421 55.5595 15.1971 55.1044L55.1044 15.1971C55.5595 14.7421 56.2064 14.5301 56.8383 14.6518C59.2733 15.1206 61.6693 15.8422 63.9841 16.8167ZM24.5442 24.5442C29.6576 19.4307 35.9267 16.1771 42.5107 14.7833C44.3133 14.4018 45.3095 16.5068 44.0066 17.8096L17.8096 44.0066C16.5068 45.3095 14.4018 44.3133 14.7833 42.5107C16.1771 35.9267 19.4307 29.6576 24.5442 24.5442Z" fill="black"/>
</svg>
